<svg aria-hidden="true" style="width:0;height:0;position:absolute;overflow:hidden" xmlns="http://www.w3.org/2000/svg"><defs><symbol id="icon-mobile-open" viewBox="0 0 32 32"><path d="M6.4 11.733V9.6h19.2v2.133H6.4zm0 5.334h19.2v-2.133H6.4v2.133zm0 5.333h19.2v-2.133H6.4V22.4z"/><symbol id="icon-mobile-close" viewBox="0 0 32 32"><path d="m26.667 7.303-1.97-1.97-7.808 7.808-7.808-7.808-1.97 1.97 7.808 7.808-7.808 7.808 1.97 1.97 7.808-7.808 7.808 7.808 1.97-1.97-7.808-7.808 7.808-7.808z"/></symbol><symbol id="icon-button-buy" viewBox="0 0 20 32"><path stroke-linejoin="round" stroke-linecap="round" stroke-width="5.818" d="m5.678 3.765 11.777 12.321L5.678 28.407"/></symbol><symbol id="icon-arrow" viewBox="0 0 82 32"><path d="M81.414 17.414a2 2 0 0 0 0-2.828L68.686 1.858a2 2 0 1 0-2.828 2.828L77.172 16 65.858 27.314a2 2 0 1 0 2.828 2.828l12.728-12.728zM0 18h80v-4H0v4z"/></symbol><symbol id="btn-sign" viewBox="0 0 8 12"><path d="M1.616 1.6 6.044 6l-4.428 4.4" fill="none" stroke-width="2" stroke-linecap="round" stroke-linejoin="round"/></symbol></symbol></defs></svg>